# xmcd CD database file
#
# Track frame offsets:
#	150
#	23139
#	39153
#	58691
#	61686
#	79539
#	100058
#	117695
#	131645
#	143169
#	145039
#	158776
#	185790
#	187492
#
# Disc length: 2722 seconds
#
# Revision: 0
# Processed by: cddbd v1.5.2PL0 Copyright (c) Steve Scherf et al.
# Submitted via: CDex 1.51
#
DISCID=c50aa00e
DTITLE=Dale Mayfield - Live At Pickin' In The Pines
DYEAR=2008
DGENRE=Country
TTITLE0=De Ja Vu (C.R.'s Song)
TTITLE1=First Waltz
TTITLE2=Second Dance
TTITLE3=Intro to If You Try
TTITLE4=If You Try
TTITLE5=North Wind
TTITLE6=Alamogordo
TTITLE7=Just Like Me
TTITLE8=She's Easy To Love
TTITLE9=Intro to The Gathering
TTITLE10=The Gathering
TTITLE11=Westy's Place
TTITLE12=Intro to Back In The Normal
TTITLE13=Back In The Normal
EXTD=YEAR: 2008
EXTT0=
EXTT1=
EXTT2=
EXTT3=
EXTT4=
EXTT5=
EXTT6=
EXTT7=
EXTT8=
EXTT9=
EXTT10=
EXTT11=
EXTT12=
EXTT13=
PLAYORDER=
